<mxfile host="app.diagrams.net" modified="2020-10-17T19:53:13.857Z" agent="5.0 (Windows)" etag="PidblhzBEvrz5KWvr_GL" version="13.8.0" type="github">
  <diagram id="P-5WJjiaz7Ii5h5qaeai" name="Page-1">
    <mxGraphModel dx="868" dy="479" grid="1" gridSize="10" guides="1" tooltips="1" connect="1" arrows="1" fold="1" page="1" pageScale="1" pageWidth="850" pageHeight="1100" math="0" shadow="0">
      <root>
        <mxCell id="0" />
        <mxCell id="1" parent="0" />
        <mxCell id="T8r0Lme_PNd4P6qjV70_-1" value="pool" style="rounded=0;whiteSpace=wrap;html=1;" vertex="1" parent="1">
          <mxGeometry x="210" y="80" width="400" height="30" as="geometry" />
        </mxCell>
        <mxCell id="T8r0Lme_PNd4P6qjV70_-2" value="&lt;font style=&quot;font-size: 18px&quot;&gt;System&lt;/font&gt;" style="rounded=0;whiteSpace=wrap;html=1;" vertex="1" parent="1">
          <mxGeometry x="210" y="110" width="400" height="30" as="geometry" />
        </mxCell>
        <mxCell id="T8r0Lme_PNd4P6qjV70_-3" value="" style="rounded=0;whiteSpace=wrap;html=1;" vertex="1" parent="1">
          <mxGeometry x="210" y="140" width="400" height="490" as="geometry" />
        </mxCell>
        <mxCell id="T8r0Lme_PNd4P6qjV70_-12" style="edgeStyle=orthogonalEdgeStyle;rounded=0;orthogonalLoop=1;jettySize=auto;html=1;entryX=0.5;entryY=0;entryDx=0;entryDy=0;" edge="1" parent="1" source="T8r0Lme_PNd4P6qjV70_-4" target="T8r0Lme_PNd4P6qjV70_-5">
          <mxGeometry relative="1" as="geometry" />
        </mxCell>
        <mxCell id="T8r0Lme_PNd4P6qjV70_-4" value="" style="ellipse;whiteSpace=wrap;html=1;aspect=fixed;fillColor=#000000;strokeColor=#FF0000;" vertex="1" parent="1">
          <mxGeometry x="395" y="160" width="30" height="30" as="geometry" />
        </mxCell>
        <mxCell id="T8r0Lme_PNd4P6qjV70_-16" style="edgeStyle=orthogonalEdgeStyle;rounded=0;orthogonalLoop=1;jettySize=auto;html=1;entryX=0.5;entryY=0;entryDx=0;entryDy=0;" edge="1" parent="1" source="T8r0Lme_PNd4P6qjV70_-5" target="T8r0Lme_PNd4P6qjV70_-6">
          <mxGeometry relative="1" as="geometry" />
        </mxCell>
        <mxCell id="T8r0Lme_PNd4P6qjV70_-17" style="edgeStyle=orthogonalEdgeStyle;rounded=0;orthogonalLoop=1;jettySize=auto;html=1;entryX=0.567;entryY=0.014;entryDx=0;entryDy=0;entryPerimeter=0;" edge="1" parent="1" source="T8r0Lme_PNd4P6qjV70_-5" target="T8r0Lme_PNd4P6qjV70_-7">
          <mxGeometry relative="1" as="geometry" />
        </mxCell>
        <mxCell id="T8r0Lme_PNd4P6qjV70_-5" value="&lt;div&gt;&lt;font style=&quot;font-size: 18px&quot;&gt;Build&lt;/font&gt;&lt;/div&gt;&lt;div&gt;&lt;font style=&quot;font-size: 18px&quot;&gt;Similarity&lt;/font&gt;&lt;/div&gt;&lt;div&gt;&lt;font style=&quot;font-size: 18px&quot;&gt;Matrix&lt;/font&gt;&lt;br&gt;&lt;/div&gt;" style="rounded=1;whiteSpace=wrap;html=1;strokeColor=#000000;fillColor=#FFFFFF;" vertex="1" parent="1">
          <mxGeometry x="330" y="220" width="160" height="80" as="geometry" />
        </mxCell>
        <mxCell id="T8r0Lme_PNd4P6qjV70_-21" style="edgeStyle=orthogonalEdgeStyle;rounded=0;orthogonalLoop=1;jettySize=auto;html=1;" edge="1" parent="1" source="T8r0Lme_PNd4P6qjV70_-6">
          <mxGeometry relative="1" as="geometry">
            <mxPoint x="399" y="450" as="targetPoint" />
          </mxGeometry>
        </mxCell>
        <mxCell id="T8r0Lme_PNd4P6qjV70_-6" value="&lt;div&gt;&lt;font style=&quot;font-size: 18px&quot;&gt;Context to&lt;/font&gt;&lt;/div&gt;&lt;div&gt;&lt;font style=&quot;font-size: 18px&quot;&gt;Query&lt;/font&gt;&lt;/div&gt;&lt;div&gt;&lt;font style=&quot;font-size: 18px&quot;&gt;Attention&lt;/font&gt;&lt;br&gt;&lt;/div&gt;" style="rounded=1;whiteSpace=wrap;html=1;strokeColor=#000000;fillColor=#FFFFFF;" vertex="1" parent="1">
          <mxGeometry x="220" y="345" width="150" height="70" as="geometry" />
        </mxCell>
        <mxCell id="T8r0Lme_PNd4P6qjV70_-23" style="edgeStyle=orthogonalEdgeStyle;rounded=0;orthogonalLoop=1;jettySize=auto;html=1;entryX=0.5;entryY=0;entryDx=0;entryDy=0;" edge="1" parent="1" source="T8r0Lme_PNd4P6qjV70_-7" target="T8r0Lme_PNd4P6qjV70_-8">
          <mxGeometry relative="1" as="geometry" />
        </mxCell>
        <mxCell id="T8r0Lme_PNd4P6qjV70_-7" value="&lt;div&gt;&lt;font style=&quot;font-size: 18px&quot;&gt;Query to&lt;/font&gt;&lt;/div&gt;&lt;div&gt;&lt;font style=&quot;font-size: 18px&quot;&gt;Context&lt;br&gt;&lt;/font&gt;&lt;/div&gt;&lt;div&gt;&lt;font style=&quot;font-size: 18px&quot;&gt;Attention&lt;/font&gt;&lt;br&gt;&lt;/div&gt;" style="rounded=1;whiteSpace=wrap;html=1;strokeColor=#000000;fillColor=#FFFFFF;" vertex="1" parent="1">
          <mxGeometry x="450" y="345" width="150" height="70" as="geometry" />
        </mxCell>
        <mxCell id="T8r0Lme_PNd4P6qjV70_-24" style="edgeStyle=orthogonalEdgeStyle;rounded=0;orthogonalLoop=1;jettySize=auto;html=1;entryX=0.488;entryY=0.735;entryDx=0;entryDy=0;entryPerimeter=0;" edge="1" parent="1" source="T8r0Lme_PNd4P6qjV70_-8" target="T8r0Lme_PNd4P6qjV70_-3">
          <mxGeometry relative="1" as="geometry" />
        </mxCell>
        <mxCell id="T8r0Lme_PNd4P6qjV70_-8" value="" style="ellipse;whiteSpace=wrap;html=1;aspect=fixed;strokeColor=#000000;fillColor=#FFFFFF;" vertex="1" parent="1">
          <mxGeometry x="390" y="450" width="30" height="30" as="geometry" />
        </mxCell>
        <mxCell id="T8r0Lme_PNd4P6qjV70_-26" value="" style="edgeStyle=orthogonalEdgeStyle;rounded=0;orthogonalLoop=1;jettySize=auto;html=1;" edge="1" parent="1" source="T8r0Lme_PNd4P6qjV70_-9" target="T8r0Lme_PNd4P6qjV70_-11">
          <mxGeometry relative="1" as="geometry" />
        </mxCell>
        <mxCell id="T8r0Lme_PNd4P6qjV70_-9" value="&lt;font style=&quot;font-size: 18px&quot;&gt;MegaMerge&lt;/font&gt;" style="rounded=1;whiteSpace=wrap;html=1;strokeColor=#000000;fillColor=#FFFFFF;" vertex="1" parent="1">
          <mxGeometry x="350" y="500" width="120" height="60" as="geometry" />
        </mxCell>
        <mxCell id="T8r0Lme_PNd4P6qjV70_-11" value="" style="ellipse;whiteSpace=wrap;html=1;aspect=fixed;fillColor=#000000;strokeColor=#FF0000;" vertex="1" parent="1">
          <mxGeometry x="395" y="590" width="30" height="30" as="geometry" />
        </mxCell>
      </root>
    </mxGraphModel>
  </diagram>
</mxfile>
